<?xml version="1.0" encoding="UTF-8"?>
<svg xmlns="http://www.w3.org/2000/svg" width="1100" height="720" viewBox="0 0 1100 720" role="img" aria-labelledby="title desc">
<title id="title">BASSLINE SOCIAL · TicketBunker demonstration poster</title><desc id="desc">Original graphic ticketing event artwork. Fictional demonstration, not a real event.</desc>
<defs><linearGradient id="shade" x1="0" y1="0" x2="1" y2="1"><stop offset="0" stop-color="#211324"/><stop offset="1" stop-color="#0c0b11"/></linearGradient><clipPath id="clip"><rect width="1100" height="720"/></clipPath></defs>
<rect width="1100" height="720" fill="url(#shade)"/>
<g clip-path="url(#clip)"><g fill="#fc7e9b" opacity=".82"><rect x="540" y="160" width="40" height="410" rx="20"/><rect x="615" y="255" width="40" height="240" rx="20"/><rect x="690" y="65" width="40" height="600" rx="20"/><rect x="765" y="225" width="40" height="300" rx="20"/><rect x="840" y="115" width="40" height="505" rx="20"/><rect x="915" y="270" width="40" height="210" rx="20"/></g></g>
<rect x="41" y="40" width="1018" height="640" rx="0" fill="none" stroke="#e1d0f5" stroke-opacity=".4" stroke-width="1.5"/>
<g fill="#e1d0f5" font-family="Arial,Helvetica,sans-serif">
<text x="80" y="99" font-size="23" font-weight="700" letter-spacing="5">TICKETBUNKER<tspan fill="#fc7e9b"> ✳</tspan></text>
<text x="80" y="149" font-size="14" letter-spacing="5" opacity=".8">EVENTS / PEOPLE / ENERGY</text>
<text x="73" y="390" font-size="126" font-weight="900" letter-spacing="-7">BASSLINE</text>
<text x="73" y="503" font-size="126" font-weight="900" letter-spacing="-7">SOCIAL</text>
<path d="M80 567H1020" stroke="#e1d0f5" stroke-opacity=".55" stroke-dasharray="7 11" stroke-width="2"/>
<text x="80" y="617" font-size="21" font-weight="700" letter-spacing="3">DRUM · BASS · JUNGLE</text>
<text x="80" y="657" font-size="14" letter-spacing="4" opacity=".8">CONCEPT EVENT · NOT BOOKABLE</text>
<text x="975" y="656" font-size="20" font-weight="800" text-anchor="end">001 / TB</text>
</g></svg>